<?xml version="1.0" encoding="UTF-8"?>
<svg width="1440" height="1024" viewBox="0 0 1440 1024" fill="none" xmlns="http://www.w3.org/2000/svg">
  <path d="M0,192 C173,100.4 384,100.4 640,192 C896,283.6 1120,283.6 1440,192 L1440,384 C1216,475.6 992,475.6 736,384 C480,292.4 224,292.4 0,384 L0,192Z" opacity="0.3" fill="currentColor"/>
  <path d="M0,512 C173,420.4 384,420.4 640,512 C896,603.6 1120,603.6 1440,512 L1440,704 C1216,795.6 992,795.6 736,704 C480,612.4 224,612.4 0,704 L0,512Z" opacity="0.3" fill="currentColor"/>
  <path d="M0,832 C173,740.4 384,740.4 640,832 C896,923.6 1120,923.6 1440,832 L1440,1024 C1216,1115.6 992,1115.6 736,1024 C480,932.4 224,932.4 0,1024 L0,832Z" opacity="0.3" fill="currentColor"/>
  <path d="M0,0 C173,-91.6 384,-91.6 640,0 C896,91.6 1120,91.6 1440,0 L1440,192 C1216,283.6 992,283.6 736,192 C480,100.4 224,100.4 0,192 L0,0Z" opacity="0.3" fill="currentColor"/>
</svg>
